#!OML:ASF X:\für Bonn\!DataBase\2005_08_10_Bjorn_Final\c3d\bjorn.ASF
:FULLY-SPECIFIED
:DEGREES
256
root 16.5841 18.4908 1.13582 1093.71 -71.9687 -339.756
lowerback 44.5088 3.82369 6.02548
upperback 23.5612 3.60987 -0.0271841
thorax 6.11782 1.70655 -4.25279
lowerneck 4.34326 -6.58568 13.4033
upperneck -19.7278 -8.18692 -1.28063
head -7.43681 -5.02756 -1.90908
rclavicle -3.81667e-014 -1.51076e-014
rhumerus 43.5502 12.8697 -38.2881
rradius 24.7821
rwrist -12.0736
rhand -10.4177 5.51795
rfingers 7.12502
rthumb 15.5813 -23.8744
lclavicle -3.81667e-014 -1.51076e-014
lhumerus -6.89718 -23.5655 87.5348
lradius 47.425
lwrist 0.276742
lhand -25.9649 -13.4915
lfingers 7.12502
lthumb 0.5796 16.4874
rfemur -63.404 -11.5927 11.7882
rtibia 49.7584
rfoot -13.9658 7.67587
rtoes -9.9593
lfemur -61.9693 -6.10145 -20.673
ltibia 48.1142
lfoot -12.5144 0.926402
ltoes -8.27971
257
root 16.5807 18.537 1.16883 1093.65 -72.1293 -340.372
lowerback 44.0614 3.87969 5.88619
upperback 23.523 3.62268 -0.0613641
thorax 6.17133 1.69471 -4.22023
lowerneck 4.19013 -6.57988 13.4417
upperneck -19.54 -8.21398 -1.35069
head -7.35407 -5.03099 -1.94366
rclavicle -1.27222e-014 -2.38542e-015
rhumerus 42.0164 12.9463 -39.4644
rradius 24.9095
rwrist -11.9897
rhand -9.73545 5.41402
rfingers 7.12502
rthumb 16.2384 -23.9259
lclavicle -1.27222e-014 -2.38542e-015
lhumerus -6.98498 -23.4288 87.397
lradius 47.2588
lwrist 0.114512
lhand -25.9085 -13.4142
lfingers 7.12502
lthumb 0.634161 16.5646
rfemur -62.2016 -11.333 11.7548
rtibia 48.9939
rfoot -13.8146 7.61081
rtoes -10.0572
lfemur -60.8556 -6.06181 -20.5903
ltibia 47.5322
lfoot -12.4385 1.07789
ltoes -8.36779
258
root 16.5759 18.5838 1.20269 1093.49 -72.3204 -340.929
lowerback 43.6379 3.95302 5.68385
upperback 23.4842 3.63535 -0.0851014
thorax 6.21422 1.67352 -4.14458
lowerneck 4.07337 -6.5585 13.3587
upperneck -19.346 -8.21217 -1.35126
head -7.26467 -5.01645 -1.93867
rclavicle -3.18055e-015 6.04305e-014
rhumerus 40.5119 13.0364 -40.6161
rradius 25.0048
rwrist -11.8151
rhand -9.08674 5.18292
rfingers 7.12502
rthumb 16.8629 -24.1049
lclavicle -3.18055e-015 6.04305e-014
lhumerus -7.08593 -23.1987 87.2867
lradius 47.0812
lwrist -0.0766336
lhand -25.7997 -13.3681
lfingers 7.12502
lthumb 0.739164 16.6103
rfemur -60.9392 -11.054 11.684
rtibia 48.2275
rfoot -13.6709 7.56029
rtoes -10.2191
lfemur -59.6719 -6.02226 -20.5271
ltibia 46.9411
lfoot -12.3973 1.23414
ltoes -8.25864
259
root 16.5698 18.6296 1.23706 1093.28 -72.4799 -341.52
lowerback 43.2683 4.00939 5.52565
upperback 23.4485 3.64496 -0.106157
thorax 6.25289 1.65504 -4.08745
lowerneck 3.91431 -6.53963 13.352
upperneck -19.0897 -8.21736 -1.3889
head -7.15359 -5.00509 -1.95916
rclavicle -9.54166e-015 3.02153e-014
rhumerus 38.9386 13.0849 -41.7585
rradius 25.1364
rwrist -11.6186
rhand -8.50881 4.91882
rfingers 7.12502
rthumb 17.4192 -24.3207
lclavicle -9.54166e-015 3.02153e-014
lhumerus -7.18494 -23.0666 87.1584
lradius 46.8993
lwrist -0.209472
lhand -25.7494 -13.2276
lfingers 7.12502
lthumb 0.787793 16.7507
rfemur -59.5814 -10.7983 11.6297
rtibia 47.4582
rfoot -13.5592 7.52818
rtoes -10.5384
lfemur -58.3981 -5.95821 -20.4986
ltibia 46.3578
lfoot -12.3561 1.33396
ltoes -8.29166
260
root 16.5626 18.6735 1.27243 1093.05 -72.6478 -342.105
lowerback 42.9088 4.06662 5.3784
upperback 23.4143 3.66 -0.128737
thorax 6.29381 1.64076 -4.03876
lowerneck 3.75631 -6.52578 13.315
upperneck -18.8479 -8.22362 -1.38007
head -7.04474 -4.99659 -1.95949
rclavicle -9.54166e-014 -4.69132e-014
rhumerus 37.3203 13.1319 -42.8508
rradius 25.2867
rwrist -11.4107
rhand -8.09363 4.60734
rfingers 7.12502
rthumb 17.8187 -24.5963
lclavicle -9.54166e-014 -4.69132e-014
lhumerus -7.27836 -22.9503 87.0253
lradius 46.7248
lwrist -0.295455
lhand -25.7271 -13.1491
lfingers 7.12502
lthumb 0.809334 16.8292
rfemur -58.2 -10.5291 11.5583
rtibia 46.6976
rfoot -13.4337 7.51215
rtoes -10.6067
lfemur -57.097 -5.93011 -20.4467
ltibia 45.7762
lfoot -12.3255 1.46707
ltoes -8.03648
261
root 16.5545 18.7165 1.30849 1092.72 -72.8154 -342.66
lowerback 42.5654 4.11489 5.23927
upperback 23.4057 3.66293 -0.153198
thorax 6.36188 1.6218 -3.99224
lowerneck 3.59382 -6.50346 13.27
upperneck -18.61 -8.21915 -1.36934
head -6.93539 -4.9828 -1.95913
rclavicle -9.54166e-015 8.34896e-015
rhumerus 35.6934 13.1865 -43.8727
rradius 25.4716
rwrist -11.319
rhand -7.69071 4.27458
rfingers 7.12502
rthumb 18.2064 -24.8934
lclavicle -9.54166e-015 8.34896e-015
lhumerus -7.3269 -22.7929 86.8882
lradius 46.5073
lwrist -0.438404
lhand -25.6982 -13.0391
lfingers 7.12502
lthumb 0.837261 16.939
rfemur -56.7549 -10.2779 11.4871
rtibia 45.9431
rfoot -13.34 7.50536
rtoes -10.9497
lfemur -55.7355 -5.85377 -20.4583
ltibia 45.2148
lfoot -12.2966 1.57446
ltoes -8.02788
262
root 16.5438 18.7572 1.34475 1092.43 -73.0023 -343.251
lowerback 42.1464 4.18689 5.07248
upperback 23.4417 3.67695 -0.159926
thorax 6.50105 1.60497 -3.91401
lowerneck 3.42344 -6.4689 13.1318
upperneck -18.401 -8.19224 -1.26841
head -6.82466 -4.96046 -1.91733
rclavicle 1.27222e-014 2.70347e-014
rhumerus 34.1068 13.2593 -44.7882
rradius 25.6378
rwrist -11.2357
rhand -7.38499 4.00873
rfingers 7.12502
rthumb 18.5005 -25.1315
lclavicle 1.27222e-014 2.70347e-014
lhumerus -7.3218 -22.6223 86.7497
lradius 46.289
lwrist -0.547736
lhand -25.7397 -12.8856
lfingers 7.12502
lthumb 0.79712 17.0927
rfemur -55.3088 -10.0034 11.4238
rtibia 45.2014
rfoot -13.2289 7.49464
rtoes -11.1647
lfemur -54.3593 -5.78254 -20.4408
ltibia 44.6677
lfoot -12.3123 1.65355
ltoes -7.87379
263
root 16.5323 18.7952 1.38141 1092.19 -73.1848 -343.913
lowerback 41.7333 4.24214 4.95607
upperback 23.4773 3.68892 -0.194039
thorax 6.64617 1.5959 -3.8897
lowerneck 3.28649 -6.43545 13.0714
upperneck -18.2798 -8.15715 -1.17685
head -6.7525 -4.94235 -1.88857
rclavicle 3.18055e-014 -7.27552e-014
rhumerus 32.5336 13.2756 -45.7387
rradius 25.7431
rwrist -11.1852
rhand -7.06763 3.79923
rfingers 7.12502
rthumb 18.8058 -25.3117
lclavicle 3.18055e-014 -7.27552e-014
lhumerus -7.30042 -22.4957 86.5415
lradius 46.0862
lwrist -0.584849
lhand -25.7362 -12.7885
lfingers 7.12502
lthumb 0.800517 17.1897
rfemur -53.8491 -9.74424 11.3872
rtibia 44.4646
rfoot -13.1112 7.54111
rtoes -11.1752
lfemur -52.9743 -5.68025 -20.428
ltibia 44.1449
lfoot -12.3218 1.74181
ltoes -7.79759
264
root 16.5183 18.8308 1.4198 1091.93 -73.3694 -344.571
lowerback 41.2933 4.30241 4.8685
upperback 23.5181 3.71701 -0.236688
thorax 6.81111 1.60015 -3.89274
lowerneck 3.1543 -6.4194 13.0904
upperneck -18.1568 -8.14073 -1.10379
head -6.68705 -4.9367 -1.87602
rclavicle -1.59028e-014 -5.70512e-014
rhumerus 30.9194 13.3386 -46.5969
rradius 25.8696
rwrist -11.2774
rhand -6.80154 3.61367
rfingers 7.12502
rthumb 19.0617 -25.4723
lclavicle -1.59028e-014 -5.70512e-014
lhumerus -7.2503 -22.3943 86.3321
lradius 45.8331
lwrist -0.679762
lhand -25.7354 -12.7062
lfingers 7.12502
lthumb 0.801269 17.272
rfemur -52.3768 -9.48643 11.3501
rtibia 43.7337
rfoot -13.0315 7.57294
rtoes -11.2798
lfemur -51.5798 -5.58218 -20.4233
ltibia 43.6382
lfoot -12.369 1.82831
ltoes -7.5808
265
root 16.5038 18.8656 1.45788 1091.78 -73.5188 -345.33
lowerback 40.8988 4.33058 4.82562
upperback 23.4968 3.73581 -0.286102
thorax 6.89609 1.60439 -3.9241
lowerneck 3.1548 -6.41175 13.0863
upperneck -18.1299 -8.10883 -0.982874
head -6.6719 -4.92778 -1.83971
rclavicle 3.18055e-014 -8.3092e-014
rhumerus 29.3007 13.4802 -47.44
rradius 25.9935
rwrist -11.4494
rhand -6.48762 3.28719
rfingers 7.12502
rthumb 19.3636 -25.7687
lclavicle 3.18055e-014 -8.3092e-014
lhumerus -7.3015 -22.2845 86.1348
lradius 45.6164
lwrist -0.737944
lhand -25.756 -12.6354
lfingers 7.12502
lthumb 0.781392 17.3429
rfemur -50.9081 -9.24054 11.3471
rtibia 43.0097
rfoot -12.9253 7.58462
rtoes -11.21
lfemur -50.212 -5.47418 -20.3983
ltibia 43.1551
lfoot -12.3882 1.87566
ltoes -7.65867
